<svg width="282" height="282" xmlns="http://www.w3.org/2000/svg" xmlns:xlink="http://www.w3.org/1999/xlink"><defs><path d="M94.103 0C134.447 0 144 9.553 144 49.897v44.206C144 134.447 134.447 144 94.103 144H49.897C9.553 144 0 134.447 0 94.103V49.897C0 9.553 9.553 0 49.897 0h44.206z" id="b"/><filter x="-86.8%" y="-59%" width="273.6%" height="273.6%" filterUnits="objectBoundingBox" id="a"><feOffset dy="40" in="SourceAlpha" result="shadowOffsetOuter1"/><feGaussianBlur stdDeviation="35" in="shadowOffsetOuter1" result="shadowBlurOuter1"/><feColorMatrix values="0 0 0 0 0.250980392 0 0 0 0 0.450980392 0 0 0 0 0.670588235 0 0 0 0.24 0" in="shadowBlurOuter1"/></filter></defs><g fill="none" fill-rule="evenodd"><g transform="translate(69 29)"><use fill="#000" filter="url(#a)" xlink:href="#b"/><use fill="#FFF" xlink:href="#b"/></g><g fill="#4680C2" fill-rule="nonzero"><path d="M163.064 105.647a2.25 2.25 0 0 1-3.175-3.19l7.108-7.074a12.709 12.709 0 0 0 0-18.035l-2.37-2.358c-5.01-4.987-13.137-4.987-18.147 0l-9.477 9.433a12.709 12.709 0 0 0 0 18.035l2.962 2.947a2.25 2.25 0 0 1-3.175 3.19l-2.961-2.948c-6.772-6.74-6.772-17.673 0-24.413l9.476-9.433c6.766-6.735 17.731-6.735 24.497 0l2.37 2.358c6.77 6.74 6.77 17.673 0 24.413l-7.108 7.075z"/><path d="M118.936 96.353a2.25 2.25 0 1 1 3.175 3.19l-7.108 7.074a12.709 12.709 0 0 0 0 18.035l2.37 2.358c5.01 4.987 13.137 4.987 18.147 0l9.477-9.433a12.709 12.709 0 0 0 0-18.035l-2.962-2.947a2.25 2.25 0 1 1 3.175-3.19l2.961 2.948c6.772 6.74 6.772 17.673 0 24.413l-9.476 9.433c-6.766 6.735-17.731 6.735-24.497 0l-2.37-2.358c-6.77-6.74-6.77-17.673 0-24.413l7.108-7.075z"/></g></g></svg>