<svg width="282" height="282" xmlns="http://www.w3.org/2000/svg" xmlns:xlink="http://www.w3.org/1999/xlink"><defs><path d="M94.103 0C134.447 0 144 9.553 144 49.897v44.206C144 134.447 134.447 144 94.103 144H49.897C9.553 144 0 134.447 0 94.103V49.897C0 9.553 9.553 0 49.897 0h44.206z" id="b"/><filter x="-86.8%" y="-59%" width="273.6%" height="273.6%" filterUnits="objectBoundingBox" id="a"><feOffset dy="40" in="SourceAlpha" result="shadowOffsetOuter1"/><feGaussianBlur stdDeviation="35" in="shadowOffsetOuter1" result="shadowBlurOuter1"/><feColorMatrix values="0 0 0 0 0.250980392 0 0 0 0 0.450980392 0 0 0 0 0.670588235 0 0 0 0.24 0" in="shadowBlurOuter1"/></filter></defs><g fill="none" fill-rule="evenodd"><g transform="translate(69 29)"><use fill="#000" filter="url(#a)" xlink:href="#b"/><use fill="#FFF" xlink:href="#b"/></g><g fill-rule="nonzero"><path d="M163 133.162v-63.34c0-3.202-2.595-5.822-5.8-5.822h-33.4c-3.19 0-5.8 2.605-5.8 5.822v63.356c0 3.202 2.595 5.822 5.8 5.822h33.4c3.19-.015 5.8-2.62 5.8-5.838z" fill="#4680C2"/><path d="M123.8 67.754h33.4c1.129 0 2.06.92 2.06 2.068v3.923h-37.52v-3.923c0-1.149.931-2.068 2.06-2.068z" fill="#FFF"/><path d="M121.74 133.162v-60.3h37.505v60.3a2.066 2.066 0 0 1-2.06 2.069H123.8c-1.13 0-2.061-.92-2.061-2.069z" fill="#FFF"/><path d="M146.855 65h-12.71c-1.739 0-3.145 1.341-3.145 3s1.406 3 3.145 3h12.71c1.739 0 3.145-1.341 3.145-3s-1.406-3-3.145-3z" fill="#4680C2"/></g></g></svg>