<?xml version="1.0" encoding="UTF-8"?>
<svg width="282px" height="282px" viewBox="0 0 282 282" version="1.1" xmlns="http://www.w3.org/2000/svg" xmlns:xlink="http://www.w3.org/1999/xlink">
    <!-- Generator: Sketch 51.3 (57544) - http://www.bohemiancoding.com/sketch -->
    <title>assets/features-stickers</title>
    <desc>Created with Sketch.</desc>
    <defs>
        <path d="M94.1030346,0 C134.447424,0 144,9.55257586 144,49.8969654 L144,94.1030346 C144,134.447424 134.447424,144 94.1030346,144 L49.8969654,144 C9.55257586,144 0,134.447424 0,94.1030346 L0,49.8969654 C0,9.55257586 9.55257586,0 49.8969654,0 L94.1030346,0 Z" id="path-1"></path>
        <filter x="-86.8%" y="-59.0%" width="273.6%" height="273.6%" filterUnits="objectBoundingBox" id="filter-2">
            <feOffset dx="0" dy="40" in="SourceAlpha" result="shadowOffsetOuter1"></feOffset>
            <feGaussianBlur stdDeviation="35" in="shadowOffsetOuter1" result="shadowBlurOuter1"></feGaussianBlur>
            <feColorMatrix values="0 0 0 0 0.250980392   0 0 0 0 0.450980392   0 0 0 0 0.670588235  0 0 0 0.24 0" type="matrix" in="shadowBlurOuter1"></feColorMatrix>
        </filter>
    </defs>
    <g id="current" stroke="none" stroke-width="1" fill="none" fill-rule="evenodd">
        <g id="screens/desktop-frontend" transform="translate(-743.000000, -1698.000000)">
            <g id="assets/features-stickers" transform="translate(812.000000, 1727.000000)">
                <g id="Path-Copy-2">
                    <use fill="black" fill-opacity="1" filter="url(#filter-2)" xlink:href="#path-1"></use>
                    <use fill="#FFFFFF" fill-rule="evenodd" xlink:href="#path-1"></use>
                </g>
                <g id="nicotine-patch" transform="translate(42.000000, 41.000000)" fill="#4680C2" fill-rule="nonzero">
                    <path d="M51.6400451,7.32747196e-15 L14.3599549,7.32747196e-15 C6.47451776,7.32747196e-15 0,6.36575311 0,14.3599549 L0,51.6400451 C0,59.5582123 6.44178769,66 14.3599549,66 L33,66 C37.4633789,66 41.8270568,64.1917877 44.971161,61.0406342 C44.971161,61.0406342 61.0446625,44.9716645 61.0431519,44.973175 C61.0436554,44.9726715 61.044159,44.972168 61.0446625,44.9716645 C64.1938018,41.8154755 66,37.452301 66,33.001007 L66,14.3599549 C66,6.44178769 59.5582123,0 51.6400451,7.32747196e-15 Z M42.2354278,58.3079224 C41.8461914,58.6976623 41.4327851,59.0607148 40.9987335,59.3955688 C41.0949097,58.8965606 41.1467743,58.3819428 41.1467743,57.8552398 L41.1467743,51.6400451 C41.1467743,45.8538666 45.8543701,41.1467743 51.6400451,41.1467743 L57.8532257,41.1467743 C58.3804321,41.1467743 58.8955536,41.0949097 59.3955688,40.9987335 C59.0602111,41.4337921 58.6971588,41.8492127 58.3069152,42.2404633 L42.2354278,58.3079224 Z" id="Shape"></path>
                </g>
            </g>
        </g>
    </g>
</svg>