<svg width="282" height="282" xmlns="http://www.w3.org/2000/svg" xmlns:xlink="http://www.w3.org/1999/xlink"><defs><path d="M94.103 0C134.447 0 144 9.553 144 49.897v44.206C144 134.447 134.447 144 94.103 144H49.897C9.553 144 0 134.447 0 94.103V49.897C0 9.553 9.553 0 49.897 0h44.206z" id="b"/><filter x="-86.8%" y="-59%" width="273.6%" height="273.6%" filterUnits="objectBoundingBox" id="a"><feOffset dy="40" in="SourceAlpha" result="shadowOffsetOuter1"/><feGaussianBlur stdDeviation="35" in="shadowOffsetOuter1" result="shadowBlurOuter1"/><feColorMatrix values="0 0 0 0 0.250980392 0 0 0 0 0.450980392 0 0 0 0 0.670588235 0 0 0 0.24 0" in="shadowBlurOuter1"/></filter></defs><g transform="translate(69 29)" fill="none" fill-rule="evenodd"><use fill="#000" filter="url(#a)" xlink:href="#b"/><use fill="#FFF" xlink:href="#b"/><g fill="#4680C2" fill-rule="nonzero"><path d="M111.454 73.008c0-7.017-2.734-13.613-7.695-18.575-4.962-4.962-11.56-7.695-18.576-7.696l-40.345-.003a2.168 2.168 0 1 0 0 4.336l25.903.002a26.475 26.475 0 0 0-7.674 7.773l-10.712-.001a2.168 2.168 0 1 0 0 4.336h8.467a26.066 26.066 0 0 0-1.816 7.655l-38.146-.003a2.168 2.168 0 1 0 0 4.336l38.145.004c.211 2.596.8 5.115 1.74 7.493H59.2a2.168 2.168 0 1 0 0 4.336h3.747a26.492 26.492 0 0 0 3.665 4.578 26.526 26.526 0 0 0 4.103 3.357l-25.873-.002a2.168 2.168 0 1 0 0 4.336l40.346.004c14.484.001 26.267-11.782 26.266-26.266zM70 88.556a22.142 22.142 0 0 1-3.539-4.61 2.167 2.167 0 0 0-.166-.294 21.893 21.893 0 0 1-2.744-10.657c-.003-12.134 9.866-22.003 22-22a21.872 21.872 0 0 1 15.562 6.449 21.872 21.872 0 0 1 6.449 15.561c.002 12.134-9.867 22.003-22 22A21.87 21.87 0 0 1 70 88.556z"/><path d="M40.895 62.997h4.11a2.047 2.047 0 1 0 0-4.094h-4.11a2.047 2.047 0 1 0 0 4.094zM54.975 84.933c-.08-1.181-1.103-2.136-2.288-2.133l-15.867.042a1.983 1.983 0 0 0-2 2.145c.04.59.316 1.125.73 1.511.414.386.966.624 1.558.622l15.867-.042a1.983 1.983 0 0 0 2-2.145z"/></g><rect fill="#4680C2" transform="rotate(45 90.546 71.718)" x="88.546" y="60.218" width="4" height="23" rx="2"/><rect fill="#4680C2" transform="rotate(-40 80.353 75.03)" x="78.353" y="68.531" width="4" height="13" rx="2"/></g></svg>