<?xml version="1.0" encoding="UTF-8"?>
<svg width="282px" height="282px" viewBox="0 0 282 282" version="1.1" xmlns="http://www.w3.org/2000/svg" xmlns:xlink="http://www.w3.org/1999/xlink">
    <!-- Generator: Sketch 51.3 (57544) - http://www.bohemiancoding.com/sketch -->
    <title>assets/icon-fast</title>
    <desc>Created with Sketch.</desc>
    <defs>
        <path d="M94.1030346,0 C134.447424,0 144,9.55257586 144,49.8969654 L144,94.1030346 C144,134.447424 134.447424,144 94.1030346,144 L49.8969654,144 C9.55257586,144 0,134.447424 0,94.1030346 L0,49.8969654 C0,9.55257586 9.55257586,0 49.8969654,0 L94.1030346,0 Z" id="path-1"></path>
        <filter x="-86.8%" y="-59.0%" width="273.6%" height="273.6%" filterUnits="objectBoundingBox" id="filter-2">
            <feOffset dx="0" dy="40" in="SourceAlpha" result="shadowOffsetOuter1"></feOffset>
            <feGaussianBlur stdDeviation="35" in="shadowOffsetOuter1" result="shadowBlurOuter1"></feGaussianBlur>
            <feColorMatrix values="0 0 0 0 0.250980392   0 0 0 0 0.450980392   0 0 0 0 0.670588235  0 0 0 0.24 0" type="matrix" in="shadowBlurOuter1"></feColorMatrix>
        </filter>
    </defs>
    <g id="current" stroke="none" stroke-width="1" fill="none" fill-rule="evenodd">
        <g id="screens/desktop-frontend" transform="translate(-742.000000, -1934.000000)">
            <g id="assets/icon-fast" transform="translate(811.000000, 1963.000000)">
                <g id="Path-Copy-5">
                    <use fill="black" fill-opacity="1" filter="url(#filter-2)" xlink:href="#path-1"></use>
                    <use fill="#FFFFFF" fill-rule="evenodd" xlink:href="#path-1"></use>
                </g>
                <g id="speed" transform="translate(70.000000, 72.795419) rotate(-315.000000) translate(-70.000000, -72.795419) translate(32.500000, 35.295419)" fill="#4680C2" fill-rule="nonzero">
                    <path d="M66.9625377,8.33789982 C62.0008197,3.37687435 55.4036024,0.644660941 48.3865964,0.644660941 C41.3694459,0.644660941 34.7722286,3.37687435 29.8105106,8.33789982 L1.27976489,36.8636879 C0.432959624,37.7103503 0.432959624,39.0829609 1.27976489,39.9296233 C1.70316752,40.3529545 2.25811553,40.5646923 2.81291898,40.5646923 C3.36772243,40.5646923 3.92281499,40.353099 4.34607307,39.9296233 L22.6632602,21.6155262 C21.9274735,25.2169489 21.9507469,28.9439689 22.733225,32.5374424 L15.1578017,40.1115878 C14.3109964,40.9582502 14.3109964,42.3308608 15.1578017,43.1775232 C15.5812043,43.6008544 16.1361523,43.8125923 16.6909558,43.8125923 C17.2457592,43.8125923 17.8008518,43.6009989 18.2241099,43.1775232 L24.2113035,37.1913396 C25.2207336,39.5723427 26.596756,41.8335297 28.3398044,43.8878929 L1.36418522,70.8592504 C0.517379951,71.7059128 0.517379951,73.0785234 1.36418522,73.9251858 C1.78758785,74.348517 2.34253585,74.5602549 2.8973393,74.5602549 C3.45214275,74.5602549 4.00723532,74.3486615 4.43049339,73.9251858 L31.405679,46.9546955 C33.3905685,48.6413719 35.588099,50.0066114 37.9339433,51.0238204 L36.8418276,52.1157518 C35.9950223,52.9624142 35.9950223,54.3350248 36.8418276,55.1816872 C37.2652302,55.6050184 37.8201782,55.8167563 38.3749817,55.8167563 C38.9297851,55.8167563 39.4848777,55.6050184 39.9081358,55.1818318 L42.5582691,52.5321455 C44.4489086,52.9582228 46.4008395,53.1770427 48.3863073,53.1770427 C50.1789383,53.1770427 51.9441037,52.9986915 53.6615659,52.6503719 L35.3651947,70.9436565 C34.5183894,71.7903189 34.5183894,73.1629295 35.3651947,74.0095919 C35.7885973,74.4329231 36.3435453,74.6446609 36.8983488,74.6446609 C37.4531522,74.6446609 38.0082448,74.4330676 38.4315028,74.0095919 L66.962104,45.4836593 C77.205441,35.242484 77.205441,18.5789306 66.9625377,8.33789982 Z M48.6447335,48.6446609 C46.671774,48.6446609 44.7384158,48.3868668 42.8830998,47.8873727 C42.7764808,47.8485151 42.6672507,47.8183569 42.5567151,47.7967533 C39.0105811,46.7826858 35.7610946,44.8798232 33.0809681,42.2009685 C24.4992252,33.6231528 24.4992252,19.666169 33.0809681,11.0883533 C37.2383845,6.93305474 42.7654563,4.64466094 48.6447335,4.64466094 C54.5237206,4.64466094 60.0510825,6.93305474 64.2083538,11.0882083 C72.7900967,19.6660241 72.7900967,33.6231528 64.2083538,42.2008236 C60.0510825,46.3562671 54.5238656,48.6446609 48.6447335,48.6446609 Z" id="Shape"></path>
                    <path d="M9.99076545,51.1516506 L12.896879,48.2455654 C13.6962786,47.4461736 13.6962786,46.1501983 12.896879,45.3508065 C12.0976159,44.5514147 10.8014914,44.5514147 10.0020919,45.3508065 L7.09597834,48.2568917 C6.29657877,49.0562835 6.29657877,50.3522588 7.09597834,51.1516506 C7.49567812,51.5513465 8.01955912,51.7512627 8.54330366,51.7512627 C9.0670482,51.7512627 9.59106567,51.5513465 9.99076545,51.1516506 Z" id="Path"></path>
                    <path d="M35.7037302,56.9592172 C34.8399505,56.1492846 33.4392027,56.1492846 32.5752755,56.9592172 L20.9997131,67.8113195 C20.1357859,68.6212521 20.1357859,69.9343164 20.9997131,70.7442491 C21.4316767,71.1492154 21.9978454,71.3517677 22.5638667,71.3517677 C23.129888,71.3517677 23.6962042,71.1493537 24.1280203,70.7442491 L35.7035827,59.8921468 C36.5678048,59.0822142 36.5678048,57.7691499 35.7037302,56.9592172 Z" id="Path" transform="translate(28.351768, 63.851768) rotate(-2.000000) translate(-28.351768, -63.851768) "></path>
                </g>
                <rect id="Rectangle" fill="#4680C2" transform="translate(90.545942, 71.717514) rotate(-315.000000) translate(-90.545942, -71.717514) " x="88.5459415" y="60.2175144" width="4" height="23" rx="2"></rect>
                <rect id="Rectangle-Copy-2" fill="#4680C2" transform="translate(80.352996, 75.030909) rotate(-40.000000) translate(-80.352996, -75.030909) " x="78.352996" y="68.5309085" width="4" height="13" rx="2"></rect>
            </g>
        </g>
    </g>
</svg>