<?xml version="1.0" encoding="UTF-8"?>
<svg width="66px" height="66px" viewBox="0 0 66 66" version="1.1" xmlns="http://www.w3.org/2000/svg" xmlns:xlink="http://www.w3.org/1999/xlink">
    <!-- Generator: Sketch 51.3 (57544) - http://www.bohemiancoding.com/sketch -->
    <title>assets/icon-glyph-stickers</title>
    <desc>Created with Sketch.</desc>
    <defs></defs>
    <g id="current" stroke="none" stroke-width="1" fill="none" fill-rule="evenodd">
        <g id="screens/desktop-frontend" transform="translate(-854.000000, -1768.000000)" fill="#4680C2" fill-rule="nonzero">
            <g id="assets/icon-stickers" transform="translate(812.000000, 1727.000000)">
                <g id="assets/icon-glyph-stickers" transform="translate(42.000000, 41.000000)">
                    <path d="M51.6400451,37.2795868 C43.721878,37.2795868 37.2795868,43.721878 37.2795868,51.6400451 L37.2795868,57.7157593 L37.2795868,57.8552398 C37.2795868,60.2138214 35.3600922,62.1328125 33,62.1328125 L14.3599549,62.1328125 C8.57427979,62.1328125 3.8671875,57.4257202 3.8671875,51.6400451 L3.8671875,14.3599549 C3.8671875,8.51486213 8.59945685,3.8671875 14.3599549,3.8671875 L51.6400451,3.8671875 C57.4257202,3.8671875 62.1328125,8.57427979 62.1328125,14.3599549 L62.1328125,33 C62.1328125,35.3600922 60.2128144,37.2795868 57.8532257,37.2795868 L57.7157593,37.2795868 L51.6400451,37.2795868 Z M51.6400451,7.32747196e-15 L14.3599549,7.32747196e-15 C6.47451776,7.32747196e-15 0,6.36575311 0,14.3599549 L0,51.6400451 C0,59.5582123 6.44178769,66 14.3599549,66 L33,66 C37.4633789,66 41.8270568,64.1917877 44.971161,61.0406342 C44.971161,61.0406342 61.0446625,44.9716645 61.0431519,44.973175 C61.0436554,44.9726715 61.044159,44.972168 61.0446625,44.9716645 C64.1938018,41.8154755 66,37.452301 66,33.001007 L66,14.3599549 C66,6.44178769 59.5582123,0 51.6400451,7.32747196e-15 Z M42.2354278,58.3079224 C41.8461914,58.6976623 41.4327851,59.0607148 40.9987335,59.3955688 C41.0949097,58.8965606 41.1467743,58.3819428 41.1467743,57.8552398 L41.1467743,51.6400451 C41.1467743,45.8538666 45.8543701,41.1467743 51.6400451,41.1467743 L57.8532257,41.1467743 C58.3804321,41.1467743 58.8955536,41.0949097 59.3955688,40.9987335 C59.0602111,41.4337921 58.6971588,41.8492127 58.3069152,42.2404633 L42.2354278,58.3079224 Z" id="Shape"></path>
                </g>
            </g>
        </g>
    </g>
</svg>