<?xml version="1.0" encoding="UTF-8"?>
<svg width="282px" height="282px" viewBox="0 0 282 282" version="1.1" xmlns="http://www.w3.org/2000/svg" xmlns:xlink="http://www.w3.org/1999/xlink">
    <!-- Generator: Sketch 51.3 (57544) - http://www.bohemiancoding.com/sketch -->
    <title>assets/icon-links</title>
    <desc>Created with Sketch.</desc>
    <defs>
        <path d="M94.1030346,0 C134.447424,0 144,9.55257586 144,49.8969654 L144,94.1030346 C144,134.447424 134.447424,144 94.1030346,144 L49.8969654,144 C9.55257586,144 0,134.447424 0,94.1030346 L0,49.8969654 C0,9.55257586 9.55257586,0 49.8969654,0 L94.1030346,0 Z" id="path-1"></path>
        <filter x="-86.8%" y="-59.0%" width="273.6%" height="273.6%" filterUnits="objectBoundingBox" id="filter-2">
            <feOffset dx="0" dy="40" in="SourceAlpha" result="shadowOffsetOuter1"></feOffset>
            <feGaussianBlur stdDeviation="35" in="shadowOffsetOuter1" result="shadowBlurOuter1"></feGaussianBlur>
            <feColorMatrix values="0 0 0 0 0.250980392   0 0 0 0 0.450980392   0 0 0 0 0.670588235  0 0 0 0.24 0" type="matrix" in="shadowBlurOuter1"></feColorMatrix>
        </filter>
    </defs>
    <g id="current" stroke="none" stroke-width="1" fill="none" fill-rule="evenodd">
        <g id="screens/desktop-frontend" transform="translate(-91.000000, -1933.000000)">
            <g id="assets/icon-links" transform="translate(160.000000, 1962.000000)">
                <g id="Path">
                    <use fill="black" fill-opacity="1" filter="url(#filter-2)" xlink:href="#path-1"></use>
                    <use fill="#FFFFFF" fill-rule="evenodd" xlink:href="#path-1"></use>
                </g>
                <g id="link2" transform="translate(40.000000, 40.000000)" fill="#4680C2" fill-rule="nonzero">
                    <path d="M54.0638791,36.6469421 C53.183168,37.5235856 51.7585506,37.5202882 50.8819071,36.6395771 C50.0052636,35.758866 50.008561,34.3342486 50.8892721,33.4576051 L57.9967247,26.3829785 C63.0010937,21.4017223 63.0010937,13.3297625 57.9967529,8.34846356 L55.6275157,5.99025215 C50.6173863,1.003248 42.4899874,1.00325019 37.4798509,5.99025441 L28.0032866,15.4230509 C22.9989045,20.404391 22.9989045,28.4762762 28.0032753,33.4576051 L30.964679,36.4053315 C31.8453901,37.281975 31.8486875,38.7065924 30.972044,39.5873035 C30.0954005,40.4680146 28.6707831,40.471312 27.790072,39.5946685 L24.828657,36.6469308 C18.0571143,29.9065669 18.0571143,18.9741004 24.8286683,12.2337252 L34.3052428,2.80091853 C41.0710379,-3.93363822 52.0363376,-3.93364118 58.8020968,2.80088934 L61.171343,5.15910978 C67.9428876,11.8994756 67.9428876,22.8320342 61.1713317,29.5723155 L54.0638791,36.6469421 Z" id="Path"></path>
                    <path d="M9.93614346,27.3531332 C10.8168594,26.4764945 12.2414768,26.4797999 13.1181154,27.3605158 C13.994754,28.2412318 13.9914487,29.6658492 13.1107327,30.5424878 L6.00330065,37.6170156 C0.998899782,42.5983565 0.998899782,50.6702397 6.00329271,55.6515728 L8.37240326,58.0097431 C13.3826197,62.9967523 21.5099497,62.9967523 26.5201548,58.0097544 L35.9967261,48.5769444 C41.0010913,43.5956885 41.0010913,35.5237343 35.9967036,30.542456 L33.0353012,27.5946455 C32.1546028,26.7179892 32.151326,25.2933718 33.0279823,24.4126734 C33.9046386,23.531975 35.329256,23.5286982 36.2099544,24.4053545 L39.1713342,27.3531425 C45.9428886,34.093427 45.9428886,45.0259958 39.1713342,51.7662803 L29.6947516,61.1991016 C22.9288809,67.9336328 11.9636885,67.9336328 5.19780652,61.1990903 L2.82867669,58.8409008 C-3.94289223,52.1005347 -3.94289223,41.1680615 2.82869403,34.4276782 L9.93614346,27.3531332 Z" id="Path"></path>
                </g>
            </g>
        </g>
    </g>
</svg>